<mxfile host="app.diagrams.net" agent="Mozilla/5.0 (Windows NT 10.0; Win64; x64) AppleWebKit/537.36 (KHTML, like Gecko) Chrome/131.0.0.0 Safari/537.36" version="26.0.4">
  <diagram name="第 1 页" id="isT9vm6Kr_W21fUGywZT">
    <mxGraphModel dx="880" dy="1721" grid="1" gridSize="10" guides="1" tooltips="1" connect="1" arrows="1" fold="1" page="1" pageScale="1" pageWidth="827" pageHeight="1169" math="0" shadow="0">
      <root>
        <mxCell id="0" />
        <mxCell id="1" parent="0" />
        <mxCell id="sMSjW9hY-ckY2-CMyo35-1" value="1) 用户打开某个生成器的使用页面，从后端请求需要用户填写的数据类型" style="text;html=1;align=left;verticalAlign=middle;whiteSpace=wrap;rounded=0;" vertex="1" parent="1">
          <mxGeometry x="60" y="10" width="420" height="30" as="geometry" />
        </mxCell>
        <mxCell id="sMSjW9hY-ckY2-CMyo35-2" value="2) 用户填写表单并提交，向后端发送请求" style="text;html=1;align=left;verticalAlign=middle;whiteSpace=wrap;rounded=0;" vertex="1" parent="1">
          <mxGeometry x="60" y="50" width="420" height="30" as="geometry" />
        </mxCell>
        <mxCell id="sMSjW9hY-ckY2-CMyo35-3" value="3) 后端从数据库中查询生成器信息，得到&lt;span style=&quot;color: rgba(0, 0, 0, 0); font-family: monospace; font-size: 0px; text-wrap-mode: nowrap;&quot;&gt;%3CmxGraphModel%3E%3Croot%3E%3CmxCell%20id%3D%220%22%2F%3E%3CmxCell%20id%3D%221%22%20parent%3D%220%22%2F%3E%3CmxCell%20id%3D%222%22%20value%3D%222)%20%E7%94%A8%E6%88%B7%E5%A1%AB%E5%86%99%E8%A1%A8%E5%8D%95%E5%B9%B6%E6%8F%90%E4%BA%A4%EF%BC%8C%E5%90%91%E5%90%8E%E7%AB%AF%E5%8F%91%E9%80%81%E8%AF%B7%E6%B1%82%22%20style%3D%22text%3Bhtml%3D1%3Balign%3Dcenter%3BverticalAlign%3Dmiddle%3BwhiteSpace%3Dwrap%3Brounded%3D0%3B%22%20vertex%3D%221%22%20parent%3D%221%22%3E%3CmxGeometry%20x%3D%2260%22%20y%3D%2250%22%20width%3D%22420%22%20height%3D%2230%22%20as%3D%22geometry%22%2F%3E%3C%2FmxCell%3E%3C%2Froot%3E%3C%2FmxGraphModel%3E&lt;/span&gt;生成器产物的文件路径" style="text;html=1;align=left;verticalAlign=middle;whiteSpace=wrap;rounded=0;" vertex="1" parent="1">
          <mxGeometry x="60" y="100" width="420" height="30" as="geometry" />
        </mxCell>
        <mxCell id="sMSjW9hY-ckY2-CMyo35-4" value="4) 后端从对象存储中下载生成器产物到本地" style="text;html=1;align=left;verticalAlign=middle;whiteSpace=wrap;rounded=0;" vertex="1" parent="1">
          <mxGeometry x="60" y="150" width="420" height="30" as="geometry" />
        </mxCell>
        <mxCell id="sMSjW9hY-ckY2-CMyo35-5" value="5) 后端操作代码生成器，输入用户填写的数据，得到生成的代码" style="text;html=1;align=left;verticalAlign=middle;whiteSpace=wrap;rounded=0;" vertex="1" parent="1">
          <mxGeometry x="60" y="200" width="420" height="30" as="geometry" />
        </mxCell>
        <mxCell id="sMSjW9hY-ckY2-CMyo35-6" value="6) 后端将生成的代码返回给用户，前端下载" style="text;html=1;align=left;verticalAlign=middle;whiteSpace=wrap;rounded=0;" vertex="1" parent="1">
          <mxGeometry x="60" y="250" width="420" height="30" as="geometry" />
        </mxCell>
        <mxCell id="sMSjW9hY-ckY2-CMyo35-7" value="&lt;font style=&quot;font-size: 18px;&quot;&gt;业务流程&lt;/font&gt;" style="text;html=1;align=center;verticalAlign=middle;whiteSpace=wrap;rounded=0;" vertex="1" parent="1">
          <mxGeometry x="60" y="-40" width="90" height="40" as="geometry" />
        </mxCell>
        <mxCell id="sMSjW9hY-ckY2-CMyo35-11" style="edgeStyle=orthogonalEdgeStyle;rounded=0;orthogonalLoop=1;jettySize=auto;html=1;exitX=0.5;exitY=0;exitDx=0;exitDy=0;exitPerimeter=0;entryX=0.5;entryY=0;entryDx=0;entryDy=0;" edge="1" parent="1" source="sMSjW9hY-ckY2-CMyo35-8" target="sMSjW9hY-ckY2-CMyo35-9">
          <mxGeometry relative="1" as="geometry" />
        </mxCell>
        <mxCell id="sMSjW9hY-ckY2-CMyo35-12" value="1. 打开页面" style="edgeLabel;html=1;align=center;verticalAlign=middle;resizable=0;points=[];" vertex="1" connectable="0" parent="sMSjW9hY-ckY2-CMyo35-11">
          <mxGeometry x="-0.0096" y="-1" relative="1" as="geometry">
            <mxPoint y="-11" as="offset" />
          </mxGeometry>
        </mxCell>
        <mxCell id="sMSjW9hY-ckY2-CMyo35-16" style="edgeStyle=orthogonalEdgeStyle;rounded=0;orthogonalLoop=1;jettySize=auto;html=1;exitX=1;exitY=0.3333333333333333;exitDx=0;exitDy=0;exitPerimeter=0;entryX=0;entryY=0.5;entryDx=0;entryDy=0;" edge="1" parent="1" source="sMSjW9hY-ckY2-CMyo35-8" target="sMSjW9hY-ckY2-CMyo35-9">
          <mxGeometry relative="1" as="geometry" />
        </mxCell>
        <mxCell id="sMSjW9hY-ckY2-CMyo35-17" value="3. 输入参数" style="edgeLabel;html=1;align=center;verticalAlign=middle;resizable=0;points=[];" vertex="1" connectable="0" parent="sMSjW9hY-ckY2-CMyo35-16">
          <mxGeometry x="-0.4275" y="3" relative="1" as="geometry">
            <mxPoint x="35" y="-6" as="offset" />
          </mxGeometry>
        </mxCell>
        <mxCell id="sMSjW9hY-ckY2-CMyo35-8" value="Actor" style="shape=umlActor;verticalLabelPosition=bottom;verticalAlign=top;html=1;outlineConnect=0;" vertex="1" parent="1">
          <mxGeometry x="500" y="110" width="30" height="60" as="geometry" />
        </mxCell>
        <mxCell id="sMSjW9hY-ckY2-CMyo35-14" style="edgeStyle=orthogonalEdgeStyle;rounded=0;orthogonalLoop=1;jettySize=auto;html=1;exitX=0.75;exitY=0;exitDx=0;exitDy=0;entryX=0.5;entryY=0;entryDx=0;entryDy=0;" edge="1" parent="1" source="sMSjW9hY-ckY2-CMyo35-9" target="sMSjW9hY-ckY2-CMyo35-13">
          <mxGeometry relative="1" as="geometry" />
        </mxCell>
        <mxCell id="sMSjW9hY-ckY2-CMyo35-15" value="2. 获取数据模型" style="edgeLabel;html=1;align=center;verticalAlign=middle;resizable=0;points=[];" vertex="1" connectable="0" parent="sMSjW9hY-ckY2-CMyo35-14">
          <mxGeometry x="0.0013" y="5" relative="1" as="geometry">
            <mxPoint y="-6" as="offset" />
          </mxGeometry>
        </mxCell>
        <mxCell id="sMSjW9hY-ckY2-CMyo35-18" style="edgeStyle=orthogonalEdgeStyle;rounded=0;orthogonalLoop=1;jettySize=auto;html=1;exitX=1;exitY=0.5;exitDx=0;exitDy=0;entryX=0;entryY=0.5;entryDx=0;entryDy=0;" edge="1" parent="1" source="sMSjW9hY-ckY2-CMyo35-9" target="sMSjW9hY-ckY2-CMyo35-13">
          <mxGeometry relative="1" as="geometry" />
        </mxCell>
        <mxCell id="sMSjW9hY-ckY2-CMyo35-19" value="4. 请求" style="edgeLabel;html=1;align=center;verticalAlign=middle;resizable=0;points=[];" vertex="1" connectable="0" parent="sMSjW9hY-ckY2-CMyo35-18">
          <mxGeometry x="-0.1629" relative="1" as="geometry">
            <mxPoint as="offset" />
          </mxGeometry>
        </mxCell>
        <mxCell id="sMSjW9hY-ckY2-CMyo35-9" value="前端使用页面&lt;div&gt;(表单)&lt;/div&gt;" style="rounded=0;whiteSpace=wrap;html=1;" vertex="1" parent="1">
          <mxGeometry x="707" y="100" width="120" height="60" as="geometry" />
        </mxCell>
        <mxCell id="sMSjW9hY-ckY2-CMyo35-22" style="edgeStyle=orthogonalEdgeStyle;rounded=0;orthogonalLoop=1;jettySize=auto;html=1;exitX=0.5;exitY=1;exitDx=0;exitDy=0;" edge="1" parent="1" source="sMSjW9hY-ckY2-CMyo35-13" target="sMSjW9hY-ckY2-CMyo35-21">
          <mxGeometry relative="1" as="geometry" />
        </mxCell>
        <mxCell id="sMSjW9hY-ckY2-CMyo35-23" value="5. 查询生成器" style="edgeLabel;html=1;align=center;verticalAlign=middle;resizable=0;points=[];" vertex="1" connectable="0" parent="sMSjW9hY-ckY2-CMyo35-22">
          <mxGeometry x="0.012" y="1" relative="1" as="geometry">
            <mxPoint x="-41" y="19" as="offset" />
          </mxGeometry>
        </mxCell>
        <mxCell id="sMSjW9hY-ckY2-CMyo35-28" style="edgeStyle=orthogonalEdgeStyle;rounded=0;orthogonalLoop=1;jettySize=auto;html=1;exitX=1;exitY=0.25;exitDx=0;exitDy=0;entryX=0;entryY=0.25;entryDx=0;entryDy=0;" edge="1" parent="1" source="sMSjW9hY-ckY2-CMyo35-13" target="sMSjW9hY-ckY2-CMyo35-27">
          <mxGeometry relative="1" as="geometry" />
        </mxCell>
        <mxCell id="sMSjW9hY-ckY2-CMyo35-29" value="7. 操作" style="edgeLabel;html=1;align=center;verticalAlign=middle;resizable=0;points=[];" vertex="1" connectable="0" parent="sMSjW9hY-ckY2-CMyo35-28">
          <mxGeometry x="0.0678" y="4" relative="1" as="geometry">
            <mxPoint as="offset" />
          </mxGeometry>
        </mxCell>
        <mxCell id="sMSjW9hY-ckY2-CMyo35-13" value="后端web项目" style="rounded=0;whiteSpace=wrap;html=1;" vertex="1" parent="1">
          <mxGeometry x="960" y="100" width="120" height="60" as="geometry" />
        </mxCell>
        <mxCell id="sMSjW9hY-ckY2-CMyo35-21" value="数据库" style="shape=cylinder3;whiteSpace=wrap;html=1;boundedLbl=1;backgroundOutline=1;size=15;" vertex="1" parent="1">
          <mxGeometry x="990" y="260" width="60" height="80" as="geometry" />
        </mxCell>
        <mxCell id="sMSjW9hY-ckY2-CMyo35-24" value="对象存储" style="shape=cylinder3;whiteSpace=wrap;html=1;boundedLbl=1;backgroundOutline=1;size=15;" vertex="1" parent="1">
          <mxGeometry x="1120" y="260" width="60" height="80" as="geometry" />
        </mxCell>
        <mxCell id="sMSjW9hY-ckY2-CMyo35-25" style="edgeStyle=orthogonalEdgeStyle;rounded=0;orthogonalLoop=1;jettySize=auto;html=1;exitX=0.5;exitY=1;exitDx=0;exitDy=0;entryX=0.5;entryY=0;entryDx=0;entryDy=0;entryPerimeter=0;" edge="1" parent="1" source="sMSjW9hY-ckY2-CMyo35-13" target="sMSjW9hY-ckY2-CMyo35-24">
          <mxGeometry relative="1" as="geometry" />
        </mxCell>
        <mxCell id="sMSjW9hY-ckY2-CMyo35-26" value="6. 下载生成器" style="edgeLabel;html=1;align=center;verticalAlign=middle;resizable=0;points=[];" vertex="1" connectable="0" parent="sMSjW9hY-ckY2-CMyo35-25">
          <mxGeometry x="0.6922" y="1" relative="1" as="geometry">
            <mxPoint as="offset" />
          </mxGeometry>
        </mxCell>
        <mxCell id="sMSjW9hY-ckY2-CMyo35-30" style="edgeStyle=orthogonalEdgeStyle;rounded=0;orthogonalLoop=1;jettySize=auto;html=1;exitX=0;exitY=0.5;exitDx=0;exitDy=0;entryX=1;entryY=0.5;entryDx=0;entryDy=0;" edge="1" parent="1" source="sMSjW9hY-ckY2-CMyo35-27" target="sMSjW9hY-ckY2-CMyo35-13">
          <mxGeometry relative="1" as="geometry" />
        </mxCell>
        <mxCell id="sMSjW9hY-ckY2-CMyo35-31" value="8. 返回代码" style="edgeLabel;html=1;align=center;verticalAlign=middle;resizable=0;points=[];" vertex="1" connectable="0" parent="sMSjW9hY-ckY2-CMyo35-30">
          <mxGeometry x="0.1989" y="-1" relative="1" as="geometry">
            <mxPoint as="offset" />
          </mxGeometry>
        </mxCell>
        <mxCell id="sMSjW9hY-ckY2-CMyo35-27" value="代码生成器" style="rounded=0;whiteSpace=wrap;html=1;" vertex="1" parent="1">
          <mxGeometry x="1200" y="100" width="120" height="60" as="geometry" />
        </mxCell>
      </root>
    </mxGraphModel>
  </diagram>
</mxfile>
